<?xml version="1.0" encoding="utf-8"?>
<!-- Generator: Adobe Illustrator 22.0.1, SVG Export Plug-In . SVG Version: 6.00 Build 0)  -->
<svg version="1.1" id="Layer_1" xmlns="http://www.w3.org/2000/svg" xmlns:xlink="http://www.w3.org/1999/xlink" x="0px" y="0px"
	 viewBox="0 0 510.2 55.3" style="enable-background:new 0 0 510.2 55.3;" xml:space="preserve">
<g>
	<path d="M431.2,2.6v44c-4.5,3-7,4.6-12.6,4.6c-8.2,0-14.9-6.8-14.9-15.1V0h-6.9l1.5,2.6v35c0,10,8,17.6,17.9,17.6
		c4.5,0,8.5-1,12.4-3.2c2.5-1.3,5.8-3.6,8.1-5.3V0h-6.8L431.2,2.6z"/>
	<path d="M20.9,0H0l1.5,2.6v51.5h5.4V33.5h11.4c3,0,5.9-0.7,8.5-2.2c0.8-0.4,1.6-1,2.5-1.4c4.9-2.9,8-8,8-13.7
		C37.3,7.1,29.9-0.1,20.9,0z M26.2,28.2c-1.7,1.1-3.6,1.3-5.6,1.3H6.9V4h11.3c7.4,0,13.6,6,13.6,13.4C31.8,21.6,29.8,25.9,26.2,28.2
		z"/>
	<polygon points="78.5,31.3 78.5,31.3 57.5,31.3 57.5,31.3 52.9,31.3 42.7,54.1 49.3,54.1 48.5,51.6 55.8,35.3 80.2,35.3 88.6,54.1 
		94.5,54.1 84.4,31.3 	"/>
	<polygon points="174.6,0 175.8,2.6 162.9,31.3 167.6,31.3 178.1,7.7 188.5,31.3 194.5,31.3 180.6,0 	"/>
	<polygon points="297,4 298.6,0 264.6,0 266.1,2.6 266.1,54.1 297,54.1 298.6,50.1 271.5,50.1 271.5,28 291.1,28 292.7,24 271.5,24 
		271.5,4 	"/>
	<polygon points="317.4,2.6 317.4,28 322.8,28 322.8,0 315.9,0 	"/>
	<polygon points="362.8,28 357.4,28 357.4,54.1 383.7,54.1 385.3,50.1 362.8,50.1 	"/>
	<polygon points="505.9,0 482.8,39.8 459.8,0 453.4,0 455.7,4 455.7,54.1 459.7,54.1 459.7,10.9 480.4,46.6 484.5,46.6 504.8,11.5 
		504.8,54.1 510.2,54.1 510.2,0 	"/>
	<path d="M137.8,28.6c4.9-2.7,7.6-8,7.6-13.4C145.4,6.7,138-0.1,129,0h-19l1.5,2.6l0,51.5h5.4V31.8h7.7l18.3,22.3h6.8L131,31.4
		C133.3,30.9,135.6,30,137.8,28.6z M116.9,27.8V4h9.4c8.4,0,13.6,5.1,13.6,12.5c0,3.9-2,8-5.6,10.1c-1.7,1.1-3.6,1.3-5.6,1.3H116.9z
		"/>
	<path d="M237,25.2c0.6-0.1,1.6-0.8,2.2-1.1c3.9-2.2,6.1-6.4,6.1-10.8c0-7.6-6.1-13.2-13.5-13.2h-19.9l1.5,2.6v51.5h17
		c4.3,0,6.5-1.2,10-3.3c4.4-2.6,7.1-7.1,7.1-12.3C247.4,32.2,243.2,26.8,237,25.2z M218.7,4h10.3c5.9,0,10.7,4.8,10.7,10.7
		c0,3.1-1.6,6.6-4.2,8.3c-1.3,0.8-2.7,1-4.2,1h-12.6V4z M237.1,49.1c-1.2,0.7-3.2,1-4.5,1h-13.8V27.9h11.4c6.5,0,11.7,5.4,11.7,11.8
		C241.8,43.1,240,47.3,237.1,49.1z"/>
</g>
</svg>
